<svg xmlns="http://www.w3.org/2000/svg" viewBox="0 0 32 32" fill="none">
  <rect width="32" height="32" rx="8" fill="url(#g)"/>
  <path d="M13.5 18.5C13.83 18.91 14.25 19.24 14.72 19.47C15.19 19.71 15.7 19.85 16.23 19.87C16.75 19.9 17.28 19.82 17.77 19.63C18.27 19.44 18.71 19.15 19.09 18.78L21.09 16.78C21.76 16.08 22.13 15.14 22.13 14.17C22.12 13.2 21.73 12.27 21.04 11.58C20.34 10.89 19.42 10.5 18.45 10.49C17.48 10.48 16.54 10.86 15.84 11.53L14.68 12.68" stroke="white" stroke-width="1.8" stroke-linecap="round" stroke-linejoin="round"/>
  <path d="M18.5 13.5C18.17 13.09 17.75 12.76 17.28 12.53C16.81 12.29 16.3 12.15 15.77 12.13C15.25 12.1 14.72 12.18 14.23 12.37C13.73 12.56 13.29 12.85 12.91 13.22L10.91 15.22C10.24 15.92 9.87 16.86 9.87 17.83C9.88 18.8 10.27 19.73 10.96 20.42C11.66 21.11 12.58 21.5 13.55 21.51C14.52 21.52 15.46 21.14 16.16 20.47L17.31 19.32" stroke="white" stroke-width="1.8" stroke-linecap="round" stroke-linejoin="round"/>
  <defs>
    <linearGradient id="g" x1="0" y1="0" x2="32" y2="32" gradientUnits="userSpaceOnUse">
      <stop stop-color="#3B5BDB"/>
      <stop offset="1" stop-color="#6366F1"/>
    </linearGradient>
  </defs>
</svg>
